<?xml version="1.0" encoding="iso-8859-1"?>
<!-- Uploaded to: SVG Repo, www.svgrepo.com, Generator: SVG Repo Mixer Tools -->
<svg height="800px" width="800px" version="1.1" id="Layer_1" xmlns="http://www.w3.org/2000/svg" xmlns:xlink="http://www.w3.org/1999/xlink" 
	 viewBox="0 0 512 512" xml:space="preserve">
<g>
	<path style="fill:#333E48;" d="M129.069,503.634c-1.745,0-3.518-0.297-5.255-0.916c-8.114-2.904-12.341-11.835-9.437-19.948
		l22.915-64.064c2.904-8.115,11.833-12.34,19.949-9.438c8.115,2.903,12.34,11.834,9.437,19.948l-22.915,64.064
		C141.481,499.657,135.474,503.634,129.069,503.634z"/>
	<path style="fill:#333E48;" d="M382.981,503.634c-6.408,0-12.412-3.976-14.695-10.354l-22.913-64.064
		c-2.904-8.115,1.323-17.046,9.438-19.948c8.107-2.903,17.044,1.318,19.948,9.438l22.916,64.064
		c2.903,8.114-1.323,17.046-9.439,19.948C386.5,503.339,384.726,503.634,382.981,503.634z"/>
</g>
<path style="fill:#E5AB46;" d="M474.276,180.506c39.378-39.379,39.378-103.229,0-142.607c-39.378-39.379-103.229-39.379-142.608,0
	L474.276,180.506z"/>
<circle style="fill:#FED771;" cx="433.422" cy="47.798" r="21.084"/>
<path style="fill:#E5AB46;" d="M37.774,180.506c-39.378-39.379-39.378-103.229,0-142.607c39.378-39.379,103.229-39.379,142.607,0
	L37.774,180.506z"/>
<circle style="fill:#FED771;" cx="106.224" cy="44.513" r="21.084"/>
<circle style="fill:#61B8CC;" cx="256.023" cy="253.122" r="220.106"/>
<path style="fill:#FFFFFF;" d="M420.281,253.127c0-90.717-73.539-164.254-164.256-164.254c-90.716,0-164.256,73.537-164.256,164.254
	c0,90.718,73.54,164.256,164.256,164.256C346.742,417.383,420.281,343.845,420.281,253.127z"/>
<path style="fill:#BFC2C5;" d="M256.025,88.873c-90.716,0-164.256,73.537-164.256,164.254c0,2.468,0.065,4.922,0.173,7.363
	c3.852-87.299,75.836-156.894,164.084-156.894s160.23,69.595,164.084,156.894c0.109-2.441,0.173-4.895,0.173-7.363
	C420.281,162.41,346.742,88.873,256.025,88.873z"/>
<g>
	<path style="fill:#333E48;" d="M256.024,268.732c-3.994,0-7.988-1.524-11.034-4.57c-6.093-6.094-6.095-15.975,0-22.07
		l70.075-70.077c6.097-6.092,15.974-6.092,22.07,0c6.095,6.093,6.095,15.974,0,22.069l-70.076,70.078
		C264.012,267.209,260.017,268.732,256.024,268.732z"/>
	<path style="fill:#333E48;" d="M256.024,268.732c-3.994,0-7.988-1.524-11.034-4.57l-48.397-48.396
		c-6.093-6.095-6.095-15.976-0.001-22.071c6.095-6.092,15.975-6.092,22.069,0l48.398,48.397c6.094,6.095,6.094,15.976,0,22.07
		C264.012,267.209,260.017,268.732,256.024,268.732z"/>
</g>
<path style="fill:#1E252B;" d="M480.103,186.334c42.529-42.531,42.529-111.732,0-154.261
	c-20.602-20.601-47.994-31.947-77.131-31.947c-29.136,0-56.529,11.346-77.131,31.947c-0.86,0.861-1.502,1.896-1.91,3.019
	c-21.459-6.699-44.268-10.309-67.906-10.309c-23.637,0-46.446,3.611-67.906,10.309c-0.408-1.124-1.049-2.158-1.91-3.019
	c-20.601-20.601-47.994-31.947-77.131-31.947s-56.529,11.346-77.13,31.947C11.346,52.675,0,80.066,0,109.203
	s11.346,56.529,31.947,77.131c1.348,1.348,3.118,2.181,4.999,2.371c-6.021,20.441-9.268,42.057-9.268,64.422
	c0,75.76,37.096,143.008,94.066,184.569l-15.128,42.297c-4.429,12.379,2.039,26.054,14.425,30.485
	c2.594,0.926,5.295,1.396,8.026,1.396c10.044,0,19.068-6.357,22.453-15.818l12.195-34.094
	c28.243,12.532,59.474,19.512,92.309,19.512s64.067-6.98,92.31-19.512l12.196,34.093c3.384,9.462,12.407,15.819,22.453,15.819
	c2.727,0,5.427-0.469,8.032-1.398c12.379-4.43,18.846-18.106,14.417-30.483l-15.129-42.296
	c56.972-41.561,94.067-108.81,94.067-184.57c0-22.364-3.247-43.982-9.268-64.423C476.927,188.52,478.703,187.732,480.103,186.334z
	 M16.481,109.203c0-24.734,9.631-47.988,27.121-65.477c17.488-17.488,40.742-27.12,65.476-27.12
	c21.968,0,42.766,7.597,59.397,21.548l-7.269,7.268c-49.817,22.831-90.054,63.069-112.886,112.884l-10.291,10.292
	C24.077,151.968,16.481,131.17,16.481,109.203z M136.004,490.505c-1.046,2.925-3.833,4.889-6.935,4.889
	c-0.837,0-1.673-0.147-2.479-0.435c-3.824-1.368-5.822-5.591-4.454-9.414l13.713-38.341c4.232,2.631,8.556,5.127,12.966,7.483
	L136.004,490.505z M385.471,494.957c-0.814,0.291-1.652,0.437-2.489,0.437c-3.102,0-5.888-1.964-6.935-4.889l-12.811-35.817
	c4.41-2.355,8.733-4.852,12.966-7.483l13.714,38.342C391.283,489.369,389.285,493.591,385.471,494.957z M256.025,464.992
	c-116.822,0-211.865-95.042-211.865-211.866c0-116.822,95.042-211.863,211.865-211.863S467.89,136.305,467.89,253.127
	C467.89,369.95,372.847,464.992,256.025,464.992z M463.731,158.31c-22.831-49.817-63.07-90.055-112.887-112.888l-7.269-7.268
	c16.631-13.952,37.429-21.548,59.397-21.548c24.735,0,47.989,9.632,65.477,27.122c34.14,34.139,35.997,88.526,5.569,124.868
	L463.731,158.31z M110.343,261.366h30.184v-16.481h-30.184V261.366z M264.266,107.446h-16.481v30.185h16.481V107.446z
	 M309.237,166.189l-53.214,53.216l-31.538-31.536c-4.504-4.503-10.491-6.982-16.86-6.982s-12.357,2.48-16.862,6.983
	c-9.296,9.297-9.295,24.426,0.002,33.724l48.397,48.396c4.504,4.504,10.492,6.982,16.86,6.982c6.37,0,12.358-2.48,16.862-6.982
	c0.003-0.003,0.007-0.008,0.01-0.011l70.067-70.068c4.504-4.505,6.983-10.493,6.983-16.862c0-6.37-2.481-12.358-6.986-16.863
	C333.663,156.895,318.537,156.895,309.237,166.189z M261.231,258.335c-1.39,1.391-3.239,2.157-5.207,2.157
	c-1.968,0-3.817-0.766-5.207-2.157l-48.396-48.395c-2.872-2.872-2.873-7.546-0.003-10.416c1.392-1.392,3.241-2.158,5.209-2.158
	c1.967,0,3.817,0.766,5.207,2.157l48.397,48.396C264.102,250.791,264.103,255.464,261.231,258.335z M331.307,188.258l-54.048,54.048
	c-1.106-2.177-2.557-4.222-4.374-6.041l-5.208-5.207l53.213-53.215c2.872-2.871,7.546-2.87,10.418-0.001
	c1.391,1.391,2.157,3.239,2.157,5.207S332.699,186.865,331.307,188.258z M256.025,80.633c-95.115,0-172.496,77.38-172.496,172.494
	c0,95.115,77.382,172.496,172.496,172.496s172.496-77.382,172.496-172.496C428.522,158.013,351.14,80.633,256.025,80.633z
	 M256.025,409.143c-86.027,0-156.016-69.988-156.016-156.016c0-86.026,69.988-156.013,156.016-156.013
	s156.016,69.987,156.016,156.013C412.041,339.154,342.052,409.143,256.025,409.143z M247.783,398.807h16.481v-30.183h-16.481
	V398.807z M401.704,244.887H371.52v16.481h30.184V244.887z"/>
</svg>